<svg width="40" height="35" viewBox="0 0 40 35" fill="none" xmlns="http://www.w3.org/2000/svg">
<path d="M30 24.8361V23.2733H14.3333L15.3333 21.7104L30.6666 20.4317L33.3333 11.9071H12.8333L11.6666 7.64484H6.66663V9.0656H10.3333L13.8333 21L11.6666 24.694V26.8252C11.6666 27.9618 12.8333 28.9563 14.1666 28.9563C15.5 28.9563 16.6666 27.9618 16.6666 26.8252C16.6666 25.6886 15.5 24.694 14.1666 24.694H26.6666V26.8252C26.6666 27.9618 27.8333 28.9563 29.1666 28.9563C30.5 28.9563 31.6666 27.9618 31.6666 26.8252C31.6666 25.8306 31 25.1202 30 24.8361Z" fill="#1C2E45" fill-opacity="0.6"/>
</svg>
